<svg id="visual" viewBox="0 0 900 600" width="900" height="600" xmlns="http://www.w3.org/2000/svg" xmlns:xlink="http://www.w3.org/1999/xlink" version="1.1"><rect x="0" y="0" width="900" height="600" fill="#000c16"></rect><path d="M0 124L21.5 131.3C43 138.7 86 153.3 128.8 162.2C171.7 171 214.3 174 257.2 173.3C300 172.7 343 168.3 385.8 159C428.7 149.7 471.3 135.3 514.2 133.2C557 131 600 141 642.8 145.7C685.7 150.3 728.3 149.7 771.2 149.3C814 149 857 149 878.5 149L900 149L900 601L878.5 601C857 601 814 601 771.2 601C728.3 601 685.7 601 642.8 601C600 601 557 601 514.2 601C471.3 601 428.7 601 385.8 601C343 601 300 601 257.2 601C214.3 601 171.7 601 128.8 601C86 601 43 601 21.5 601L0 601Z" fill="#001220"></path><path d="M0 278L21.5 284.2C43 290.3 86 302.7 128.8 304.3C171.7 306 214.3 297 257.2 294.3C300 291.7 343 295.3 385.8 295.7C428.7 296 471.3 293 514.2 294.8C557 296.7 600 303.3 642.8 300.7C685.7 298 728.3 286 771.2 285.8C814 285.7 857 297.3 878.5 303.2L900 309L900 601L878.5 601C857 601 814 601 771.2 601C728.3 601 685.7 601 642.8 601C600 601 557 601 514.2 601C471.3 601 428.7 601 385.8 601C343 601 300 601 257.2 601C214.3 601 171.7 601 128.8 601C86 601 43 601 21.5 601L0 601Z" fill="#011825"></path><path d="M0 471L21.5 468.8C43 466.7 86 462.3 128.8 456.2C171.7 450 214.3 442 257.2 444.2C300 446.3 343 458.7 385.8 464.7C428.7 470.7 471.3 470.3 514.2 467.7C557 465 600 460 642.8 454.5C685.7 449 728.3 443 771.2 440C814 437 857 437 878.5 437L900 437L900 601L878.5 601C857 601 814 601 771.2 601C728.3 601 685.7 601 642.8 601C600 601 557 601 514.2 601C471.3 601 428.7 601 385.8 601C343 601 300 601 257.2 601C214.3 601 171.7 601 128.8 601C86 601 43 601 21.5 601L0 601Z" fill="#001e2a"></path></svg>